<?xml version="1.0" encoding="UTF-8"?>
<svg id="tile-grid" xmlns="http://www.w3.org/2000/svg" version="1.1" viewBox="0 0 2604 421.9">
  <!-- Generator: Adobe Illustrator 30.3.0, SVG Export Plug-In . SVG Version: 2.1.3 Build 182)  -->
  <defs>
    <style>
      .st0 {
        fill: none;
        stroke: #88d2ff;
        stroke-miterlimit: 10;
        stroke-width: 2px;
      }
    </style>
  </defs>
  <polyline class="st0" points="0 15.3 325.5 18.8 651 15.3 976.5 18.8 1302 15.3 1627.5 18.8 1953 15.3 2278.5 18.8 2604 15.3"/>
  <polyline class="st0" points="0 18.1 325.5 23 651 18.1 976.5 23 1302 18.1 1627.5 23 1953 18.1 2278.5 23 2604 18.1"/>
  <polyline class="st0" points="0 22.1 325.5 28.9 651 22.1 976.5 28.9 1302 22.1 1627.5 28.9 1953 22.1 2278.5 28.9 2604 22.1"/>
  <polyline class="st0" points="0 27.6 325.5 37 651 27.6 976.5 37 1302 27.6 1627.5 37 1953 27.6 2278.5 37 2604 27.6"/>
  <polyline class="st0" points="0 35.3 325.5 48.3 651 35.3 976.5 48.3 1302 35.3 1627.5 48.3 1953 35.3 2278.5 48.3 2604 35.3"/>
  <polyline class="st0" points="0 45.9 325.5 64 651 45.9 976.5 64 1302 45.9 1627.5 64 1953 45.9 2278.5 64 2604 45.9"/>
  <polyline class="st0" points="0 60.6 325.5 85.8 651 60.6 976.5 85.8 1302 60.6 1627.5 85.8 1953 60.6 2278.5 85.8 2604 60.6"/>
  <polyline class="st0" points="0 81.2 325.5 116.1 651 81.2 976.5 116.1 1302 81.2 1627.5 116.1 1953 81.2 2278.5 116.1 2604 81.2"/>
  <polyline class="st0" points="0 109.6 325.5 158.2 651 109.6 976.5 158.2 1302 109.6 1627.5 158.2 1953 109.6 2278.5 158.2 2604 109.6"/>
  <polyline class="st0" points="0 149.2 325.5 216.7 651 149.2 976.5 216.7 1302 149.2 1627.5 216.7 1953 149.2 2278.5 216.7 2604 149.2"/>
  <polyline class="st0" points="0 204.1 325.5 297.9 651 204.1 976.5 297.9 1302 204.1 1627.5 297.9 1953 204.1 2278.5 297.9 2604 204.1"/>
  <polyline class="st0" points="0 280.4 325.5 410.6 651 280.4 976.5 410.6 1302 280.4 1627.5 410.6 1953 280.4 2278.5 410.6 2604 280.4"/>
</svg>