<?xml version="1.0" encoding="UTF-8"?>
<svg id="Layer_1" xmlns="http://www.w3.org/2000/svg" version="1.1" viewBox="0 0 1373.4 294.8">
  <!-- Generator: Adobe Illustrator 30.3.0, SVG Export Plug-In . SVG Version: 2.1.3 Build 182)  -->
  <defs>
    <style>
      .st0 {
        fill: #f7f7f7;
      }
    </style>
  </defs>
  <g>
    <path class="st0" d="M231,165.1"/>
    <path class="st0" d="M231.1,166.4c0-.1,0-.3,0-.4,0,0,0,0,0,0,0-.3,0-.6,0-.9h0c0,0,0-.2,0-.3,0-.2,0-.5,0-.7,0-.2,0-.5,0-.7,0-.2,0-.5-.1-.7,0-.2,0-.5-.1-.7,0-.2-.1-.5-.2-.7,0-.2-.1-.5-.2-.7,0-.2-.1-.5-.2-.7,0-.2-.2-.5-.2-.7-.2-.4-.3-.8-.5-1.3,0-.2-.2-.5-.3-.7-.1-.2-.2-.5-.3-.7,0-.2-.2-.4-.3-.6-.1-.2-.3-.5-.4-.7-.1-.2-.2-.4-.3-.6-.1-.2-.3-.5-.4-.7-.1-.2-.2-.4-.4-.6-.1-.2-.3-.5-.5-.7-.1-.2-.3-.4-.4-.6-.2-.2-.3-.5-.5-.7-.1-.2-.3-.4-.4-.6-.2-.2-.4-.5-.5-.7-.1-.2-.3-.3-.4-.5-.7-.9-1.5-1.8-2.3-2.8-.1-.1-.2-.3-.4-.4-.2-.3-.5-.5-.7-.8-.1-.2-.3-.3-.4-.5-.3-.3-.5-.5-.8-.8-.1-.2-.3-.3-.4-.5-.3-.3-.5-.5-.8-.8-.1-.1-.3-.3-.4-.4-.3-.3-.6-.6-.9-.8-.1-.1-.3-.2-.4-.4-.3-.3-.6-.6-.9-.9,0,0-.2-.1-.2-.2-5.2-4.8-11.1-9.7-17.2-15.1,0,0,0,0,0,0-.5-.5-1-.9-1.6-1.4-.1,0-.2-.2-.3-.3-.4-.4-.9-.8-1.3-1.2-.1-.1-.3-.3-.4-.4-.4-.4-.8-.8-1.3-1.2-.1-.1-.3-.3-.4-.4-.4-.4-.8-.8-1.3-1.2-.1-.1-.3-.3-.4-.4-.5-.5-1-.9-1.4-1.4,0,0-.1-.1-.2-.2-1.1-1.1-2.2-2.3-3.3-3.4-.1-.1-.2-.3-.4-.4-.4-.4-.8-.9-1.2-1.3-.2-.2-.3-.4-.5-.6-.4-.4-.7-.8-1.1-1.2-.2-.2-.4-.4-.5-.6-.3-.4-.7-.8-1-1.2-.2-.2-.4-.4-.6-.7-.3-.4-.7-.8-1-1.2-.2-.2-.4-.4-.5-.7-.4-.5-.7-.9-1.1-1.4-.1-.2-.3-.4-.4-.6-.5-.6-.9-1.2-1.4-1.9,0,0,0,0,0-.1-.5-.7-1-1.4-1.4-2.1-.1-.2-.2-.4-.3-.5-.3-.5-.7-1-1-1.6-.2-.3-.3-.5-.5-.8-.3-.5-.6-.9-.9-1.4-.2-.3-.3-.6-.5-.9-.3-.5-.5-.9-.8-1.4-.2-.3-.3-.6-.5-.9-.3-.5-.5-.9-.8-1.4-.2-.3-.3-.6-.5-.9-.3-.5-.5-1-.8-1.5-.1-.3-.3-.6-.4-.9-.3-.6-.6-1.2-.8-1.8,0-.2-.2-.4-.3-.6-.4-.8-.7-1.7-1.1-2.5,0-.2-.1-.3-.2-.5-.3-.7-.5-1.4-.8-2-.1-.3-.2-.6-.3-.9-.2-.6-.4-1.1-.6-1.7-.1-.4-.2-.7-.4-1.1-.2-.5-.4-1.1-.5-1.7-.1-.4-.2-.8-.3-1.1-.2-.6-.3-1.1-.5-1.7-.1-.4-.2-.8-.3-1.2-.2-.6-.3-1.2-.4-1.8,0-.4-.2-.8-.3-1.1-.1-.7-.3-1.3-.4-2,0-.3-.1-.6-.2-1-.2-1-.4-2-.6-3.1-.6-3.4-1.8-6.6-3.4-9.4-1.6-2.8-3.7-5.3-6-7.4-.4-.4-.8-.7-1.2-1.1-2.1-1.7-4.4-3.2-6.8-4.5-.5-.3-1-.5-1.5-.7-2-.9-4.1-1.7-6.3-2.4-4.9-1.5-10.1-2.2-15.4-2.2h0s0,0-.1,0c0,0,0,0-.1,0h0c-5.2,0-10.5.8-15.4,2.2-2.2.7-4.3,1.4-6.3,2.4-.5.2-1,.5-1.5.7-2.5,1.3-4.7,2.7-6.8,4.5-.4.3-.8.7-1.2,1.1-2.4,2.2-4.4,4.6-6,7.4-1.6,2.8-2.8,5.9-3.4,9.4-.2,1-.4,2-.6,3.1,0,.3-.1.7-.2,1-.1.7-.3,1.3-.4,2,0,.4-.2.8-.3,1.1-.1.6-.3,1.2-.4,1.8-.1.4-.2.8-.3,1.2-.2.6-.3,1.1-.5,1.7-.1.4-.2.8-.3,1.1-.2.6-.3,1.1-.5,1.7-.1.4-.2.7-.4,1.1-.2.6-.4,1.1-.6,1.7-.1.3-.2.6-.3.9-.3.7-.5,1.4-.8,2,0,.2-.1.3-.2.5-.3.8-.7,1.7-1.1,2.5,0,.2-.2.4-.3.6-.3.6-.6,1.2-.8,1.8-.1.3-.3.6-.4.9-.3.5-.5,1-.8,1.5-.2.3-.3.6-.5.9-.3.5-.5.9-.8,1.4-.2.3-.3.6-.5.9-.3.5-.5.9-.8,1.4-.2.3-.3.6-.5.9-.3.5-.6.9-.9,1.4-.2.3-.3.5-.5.8-.3.5-.7,1-1,1.6-.1.2-.2.4-.3.5-.5.7-.9,1.4-1.4,2.1,0,0,0,0,0,.1-.5.6-.9,1.3-1.4,1.9-.1.2-.3.4-.4.6-.3.5-.7.9-1.1,1.4-.2.2-.4.4-.5.7-.3.4-.7.8-1,1.2-.2.2-.4.5-.6.7-.3.4-.7.8-1,1.2-.2.2-.4.4-.6.6-.4.4-.7.8-1.1,1.2-.2.2-.3.4-.5.6-.4.4-.8.9-1.2,1.3-.1.1-.3.3-.4.4-1.1,1.2-2.2,2.3-3.3,3.4,0,0-.1.1-.2.2-.5.5-1,1-1.4,1.4-.1.1-.3.3-.4.4-.4.4-.8.8-1.3,1.2-.1.1-.3.3-.4.4-.4.4-.8.8-1.3,1.2-.1.1-.3.3-.4.4-.4.4-.9.8-1.3,1.2-.1,0-.2.2-.3.3-.5.5-1,.9-1.6,1.4,0,0,0,0,0,0-6.1,5.5-12.1,10.4-17.2,15.1,0,0-.2.1-.2.2-.3.3-.6.6-.9.9-.1.1-.3.2-.4.4-.3.3-.6.5-.9.8-.1.1-.3.3-.4.4-.3.3-.5.5-.8.8-.1.2-.3.3-.4.5-.3.3-.5.5-.8.8-.1.2-.3.3-.4.5-.2.3-.5.5-.7.8-.1.1-.2.3-.4.4-.8.9-1.6,1.8-2.3,2.8-.1.2-.3.3-.4.5-.2.2-.4.5-.5.7-.1.2-.3.4-.4.6-.2.2-.3.5-.5.7-.1.2-.3.4-.4.6-.2.2-.3.5-.5.7-.1.2-.2.4-.4.6-.1.2-.3.5-.4.7-.1.2-.2.4-.3.6-.1.2-.3.5-.4.7-.1.2-.2.4-.3.6-.1.2-.2.5-.3.7-.1.2-.2.5-.3.7-.2.4-.3.8-.5,1.3,0,.2-.2.5-.2.7,0,.2-.1.5-.2.7,0,.2-.1.5-.2.7,0,.2-.1.5-.2.7,0,.2-.1.5-.1.7,0,.2,0,.5-.1.7,0,.2,0,.5,0,.7,0,.2,0,.5,0,.7,0,0,0,.2,0,.3h0c0,.6,0,1.1,0,1.7,0,0,0,0,0,0h0v60c0,3.9.8,7.8,2.4,11.4,0,0,0,0,0,0,5.9,13.4,21.6,22.4,39,22.4h0c5,0,9.9-.7,14.5-2.1,18-5.5,36.8-8.2,55.9-8.2s38,2.8,55.9,8.2c4.7,1.4,9.6,2.1,14.6,2.1,17.4,0,33.1-9,39-22.4,0,0,0,0,0,0,1.6-3.6,2.4-7.5,2.4-11.4v-59.7c0-.2,0-.5,0-.7ZM45.9,165.1c36.2-22.9,62-59.4,70.6-101.5.3-1.4,1.5-2.1,2.6-2,1.1,0,2.3.6,2.6,2,8.6,42.1,34.4,78.6,70.6,101.5,2.4,1.6.6,5.4-2.2,4.6-22.7-8.1-46.9-14-71.1-14.4-24.1.4-48.3,6.2-71.1,14.4-2.8.9-4.6-2.9-2.2-4.6ZM218.9,233.9h0s0,0,0,0c-2,4.5-5.7,8.4-10.7,11.3-5.4,3.1-11.8,4.8-18.5,4.8s-7.8-.6-11.5-1.7c-19-5.8-38.8-8.7-59-8.7s-40.1,2.9-59,8.7c-3.7,1.1-7.5,1.7-11.4,1.7-6.7,0-13.1-1.6-18.5-4.8-5-2.9-8.8-6.8-10.7-11.3h0s0,0,0,0h0s0,0,0,0c-1-2.2-1.5-4.6-1.5-7.1v-37.6c11.4,10.1,30.4,14.2,45.4,9.1,17.9-5.4,36.7-8.2,55.9-8.2,19.1,0,37.9,2.8,55.9,8.2,15,5.1,33.9,1,45.3-9v37.5c0,2.5-.5,4.9-1.5,7.1Z"/>
  </g>
  <g>
    <path class="st0" d="M347.4,69h13.7c2.3,0,4.1,1.8,4.1,4.1v99h.5l103-101.9c.8-.8,1.8-1.2,2.9-1.2h17.3c3.7,0,5.5,4.4,2.9,7l-73.5,72.4,78.8,85.6c2.4,2.6.6,6.9-3,6.9h-19.1c-1.2,0-2.2-.5-3-1.3l-69.8-76.5-36.8,34.5v39.2c0,2.3-1.8,4.1-4.1,4.1h-13.7c-2.3,0-4.1-1.8-4.1-4.1V73.1c0-2.3,1.8-4.1,4.1-4.1Z"/>
    <path class="st0" d="M528.6,59.9h12.7c2.3,0,4.1,1.8,4.1,4.1v55.7c0,7-.5,22.5-.5,27.2h.3c7-22.5,25.1-37.1,55.9-37.1s54,19.6,54,50.4v80.7h-20.9v-76.2c0-21.9-12.5-36-40.2-36s-48.6,18.8-48.6,51.4v60.8h-20.9V64c0-2.3,1.8-4.1,4.1-4.1Z"/>
    <path class="st0" d="M690.7,69h14.3c2.3,0,4.1,1.8,4.1,4.1v18.2c0,2.3-1.8,4.1-4.1,4.1h-14.3c-2.3,0-4.1-1.8-4.1-4.1v-18.2c0-2.3,1.8-4.1,4.1-4.1ZM691.5,111.8h12.7c2.3,0,4.1,1.8,4.1,4.1v120.8c0,2.3-1.8,4.1-4.1,4.1h-12.7c-2.3,0-4.1-1.8-4.1-4.1v-120.8c0-2.3,1.8-4.1,4.1-4.1Z"/>
    <path class="st0" d="M746.1,111.8h12.6c2.3,0,4.1,1.9,4.1,4.2l-.5,30h.3c5.5-22.2,21.9-36.3,45.2-36.3s42,13.3,45.2,33.9h.3c4.4-20.6,21.1-33.9,45.4-33.9s46.2,19.3,46.2,49.3v77.6c0,2.3-1.8,4.1-4.1,4.1h-12.7c-2.3,0-4.1-1.8-4.1-4.1v-73.2c0-21.4-10.4-35-31.1-35s-38.9,17.5-38.9,47.3v60.9c0,2.3-1.8,4.1-4.1,4.1h-12.7c-2.3,0-4.1-1.8-4.1-4.1v-74c0-20.9-10.7-34.2-31.3-34.2s-38.9,17.8-38.9,48.3v59.9c0,2.3-1.8,4.1-4.1,4.1h-12.7c-2.3,0-4.1-1.8-4.1-4.1v-120.8c0-2.3,1.8-4.1,4.1-4.1Z"/>
    <path class="st0" d="M1092.6,180.5h-101c1.3,27.4,18,44.6,43.3,44.6s34.6-9.6,37.9-24.7c.4-1.9,2.1-3.2,4-3.2h11.4c2.5,0,4.4,2.2,4.1,4.6-3.5,25.3-25.5,41.1-57.5,41.1s-64-25.6-64-65.5,24.8-67.6,63.4-67.6,58.5,22.7,58.5,61.1v9.7ZM1073.3,163.8c0-22.7-14.1-36.3-38.6-36.3s-38.4,13.3-42.3,37.9h80.9v-1.6Z"/>
    <path class="st0" d="M1215.8,157.5h11.6c2.4,0,4.3-2.1,4.1-4.5-2.2-26.9-17.4-43.3-44.1-43.3s-41,17-47,39.4h-.3l.5-33.2c0-2.3-1.8-4.2-4.1-4.2h-12.6c-2.3,0-4.1,1.8-4.1,4.1v120.8c0,2.3,1.8,4.1,4.1,4.1h12.7c2.3,0,4.1-1.8,4.1-4.1v-53.1c0-32.1,15.4-55.1,41.8-55.1s26.9,8.7,29.3,25.5c.3,2,2.1,3.5,4.1,3.5Z"/>
    <path class="st0" d="M1245.5,203.7c0-18.3,12.8-33.9,47.3-33.9h52.5v-9.4c0-22.2-13.1-32.9-39.4-32.9s-36.8,8.9-36.8,26.4,0,.3,0,.6c0,2.3-1.8,4.1-4.1,4.1h-11.2c-2.2,0-3.9-1.7-4.1-3.8,0-1.4-.2-2.9-.2-4,0-25.6,21.9-41,56.9-41s59.8,18.8,59.8,52.5v74.5c0,2.3-1.8,4.1-4.1,4.1h-12.5c-2.3,0-4.2-1.9-4.1-4.3.3-6.6.7-16.2.9-26.3h-.3c-4.4,19.8-20.6,32.6-52.7,32.6s-47.8-14.9-47.8-39.2ZM1345.2,186.8v-1.8h-50.6c-21.1,0-29.5,6.3-29.5,18.8s12,21.4,32.4,21.4c29.2,0,47.8-14.9,47.8-38.4Z"/>
  </g>
</svg>